PathFileType	4	(X/Y/Z)	 s04c0303.trc
DataRate	CameraRate	NumFrames	NumMarkers	Units	OrigDataRate	OrigDataStartFrame	OrigNumFrames
200	200	4	50	mm	200	501	2000
Frame#	Time	racr			lacr			c7			jug			rlel			rdr			llel			ldr			s2			lic			ric			lasi			rasi			rpsi			lpsi			rgt			lgt			rth1			rth2			rth3			rth4			rlfc			rmfc			rsh1			rsh2			rsh3			rsh4			rlmal			rmmal			rcal			rtoe			rmt5			lth1			lth2			lth4			lth3			llfc			lmfc			lsh1			lsh2			lsh3			lsh4			llmal			lmmal			lcal			ltoe			lmt5			SBIKE			LBIKE			RBIKE			
		X1	Y1	Z1	X2	Y2	Z2	X3	Y3	Z3	X4	Y4	Z4	X5	Y5	Z5	X6	Y6	Z6	X7	Y7	Z7	X8	Y8	Z8	X9	Y9	Z9	X10	Y10	Z10	X11	Y11	Z11	X12	Y12	Z12	X13	Y13	Z13	X14	Y14	Z14	X15	Y15	Z15	X16	Y16	Z16	X17	Y17	Z17	X18	Y18	Z18	X19	Y19	Z19	X20	Y20	Z20	X21	Y21	Z21	X22	Y22	Z22	X23	Y23	Z23	X24	Y24	Z24	X25	Y25	Z25	X26	Y26	Z26	X27	Y27	Z27	X28	Y28	Z28	X29	Y29	Z29	X30	Y30	Z30	X31	Y31	Z31	X32	Y32	Z32	X33	Y33	Z33	X34	Y34	Z34	X35	Y35	Z35	X36	Y36	Z36	X37	Y37	Z37	X38	Y38	Z38	X39	Y39	Z39	X40	Y40	Z40	X41	Y41	Z41	X42	Y42	Z42	X43	Y43	Z43	X44	Y44	Z44	X45	Y45	Z45	X46	Y46	Z46	X47	Y47	Z47	X48	Y48	Z48	X49	Y49	Z49	X50	Y50	Z50	
501	2.5050	798.946323	1293.249038	-32.079689	796.223427	1330.621876	-352.083533	819.819187	1392.670338	-195.321602	746.674848	1258.254392	-216.886710	551.844674	1109.819255	100.284731	697.501458	926.351827	-61.126071	611.336767	1160.279236	-518.682632	708.400717	912.478432	-451.015232	235.746994	1304.136391	-301.062437	416.136658	1256.332226	-409.585995	335.277705	1305.200225	-105.083686	434.659313	1203.232624	-358.325267	381.256443	1252.010625	-136.092756	260.094350	1348.136561	-256.006115	283.813417	1339.190466	-328.854385	288.863506	1257.641494	-92.852742	359.509358	1173.951652	-441.752962	385.795806	1122.055318	-70.979250	454.673987	1068.832979	-68.866613	490.396767	990.319337	-73.498368	483.248079	1090.423136	-85.002883	564.581409	862.675914	-92.417525	554.695017	847.087463	-207.000039	490.311741	761.377151	-76.779484	460.411623	676.585774	-93.897504	392.586493	625.015590	-105.948599	489.619526	661.981888	-115.108856	314.122529	496.908297	-118.295741	340.882515	500.698679	-201.842298	241.748572	487.484380	-159.933417	522.107475	384.474459	-142.098216	450.041567	380.719791	-88.055285	381.960376	1083.533457	-447.276125	424.078465	1008.005836	-440.727203	453.900276	1016.592457	-423.417213	425.565126	919.379943	-448.281931	423.249647	754.022458	-439.138261	430.112768	717.045099	-327.871855	351.503247	647.348463	-466.764249	308.477575	574.135266	-447.163482	233.669698	525.908305	-451.674308	327.546826	559.269222	-415.986758	126.320854	416.975943	-453.687186	125.281139	423.113589	-365.957585	62.610142	462.947031	-416.026527	198.006631	187.120785	-394.509948	138.876406	231.457136	-461.971180	-175.328632	933.582444	-277.623638	-3.199494	86.395106	-484.291238	-14.895929	80.499044	-83.916797	
502	2.5100	799.687025	1290.664290	-32.524206	794.504956	1331.689038	-352.528995	819.324163	1392.230531	-195.046855	746.250232	1258.031210	-217.587813	550.950766	1109.232317	100.187992	697.220789	926.308173	-61.223273	611.250241	1159.950432	-518.550952	708.295536	912.592847	-451.371000	234.914288	1302.930268	-299.339646	415.000128	1257.093141	-408.790162	335.128907	1301.717155	-103.269748	433.995446	1203.541732	-358.175471	381.072787	1249.359614	-135.327861	258.943943	1346.935539	-253.009190	283.096029	1338.401843	-327.155054	287.866882	1253.381118	-91.663537	360.446930	1175.123181	-441.433827	383.284069	1116.109793	-70.515498	452.510583	1061.609295	-70.425797	486.684179	983.545597	-74.110803	480.653684	1083.891949	-83.867800	560.475437	857.057514	-93.040458	551.157758	841.351017	-208.080197	487.405783	754.431902	-77.414700	459.484602	668.870415	-94.181850	392.425863	615.886114	-106.063938	488.629473	654.654869	-115.107716	316.520776	485.515225	-118.167996	343.004475	489.766455	-201.676726	244.063866	475.832996	-159.489356	525.168247	374.362677	-142.319938	453.361498	370.365258	-88.195122	383.542620	1084.806848	-446.506198	426.710851	1009.792424	-440.704389	456.434060	1018.726299	-424.208603	429.220210	921.189189	-448.415868	429.339699	756.040095	-438.732166	436.639594	718.770606	-327.642454	356.335779	650.990802	-466.634040	311.329411	579.107422	-447.068242	235.070705	532.995463	-451.551675	330.354840	563.753392	-416.333853	125.099323	426.787771	-453.510142	124.648799	432.541223	-365.916062	61.921476	473.416109	-415.760208	194.112307	196.143321	-394.554939	135.444765	241.181359	-461.981964	-175.300608	933.534920	-277.702332	-3.181823	86.342050	-484.295397	-14.880599	80.507819	-83.916425	
503	2.5150	800.443902	1288.345639	-33.132626	792.882533	1332.588127	-352.905341	818.599542	1391.570712	-194.966885	745.937765	1257.353820	-218.162848	550.199664	1108.525867	99.827010	697.048975	926.099501	-61.622443	611.010507	1159.913864	-518.573574	708.010333	912.675967	-451.737466	234.047814	1301.339376	-297.590493	413.847046	1257.630968	-407.991141	335.064187	1297.949198	-101.482521	433.313189	1203.719016	-357.992319	380.992456	1246.493190	-134.533727	257.829295	1345.077272	-250.379129	281.986129	1337.348103	-325.060388	286.964621	1248.989795	-90.505028	361.146367	1175.858251	-441.095797	381.000957	1110.538027	-69.710503	449.899555	1054.921935	-70.715801	483.070659	976.818306	-74.775665	478.241806	1077.263162	-83.125420	556.958542	851.505609	-93.853122	544.762704	835.597080	-209.109405	484.309190	747.540548	-78.050447	457.945204	661.521263	-94.463510	392.054446	607.203761	-105.945816	487.105799	647.627267	-115.023487	318.523870	474.825931	-118.052309	345.086857	479.265363	-201.721103	245.983121	464.624832	-158.706089	527.759485	364.245884	-142.564854	456.087200	359.869709	-88.376708	384.694187	1085.910370	-445.927390	428.935799	1011.343981	-440.943244	458.702767	1020.598642	-424.742175	432.402209	922.762074	-448.806129	435.107240	757.559136	-438.438618	443.031899	720.347501	-327.212037	360.761577	654.757613	-466.401754	313.812995	584.027029	-446.895880	236.444669	540.010431	-451.290532	332.643678	568.042938	-416.408342	123.977170	436.668241	-453.167184	123.954968	442.150916	-365.707943	61.370680	483.866919	-415.351913	190.927915	205.428434	-394.548858	132.645038	251.085683	-462.007409	-175.255595	933.540572	-277.756891	-3.197371	86.326423	-484.314162	-14.866485	80.501902	-83.922398	
504	2.5200	801.311964	1286.180467	-33.869693	791.392896	1333.395988	-353.312406	817.882170	1390.868526	-194.592927	745.835435	1256.541378	-218.511652	549.933183	1107.770493	99.298475	696.993145	925.660981	-62.132584	610.758772	1159.891807	-518.740115	707.605784	912.537479	-451.984540	233.203957	1299.480011	-295.610302	412.690914	1257.928200	-407.125995	335.121108	1293.886701	-99.697283	432.609364	1203.780101	-357.777306	381.016989	1243.430630	-133.709692	256.717155	1343.195572	-247.567978	280.589173	1335.934761	-322.662440	286.222736	1244.562477	-89.412368	361.219326	1175.998407	-440.563899	378.679355	1104.574399	-69.411864	447.260009	1048.531331	-70.701968	479.709776	970.097182	-75.496331	475.784281	1070.653439	-81.763462	553.658033	845.569370	-94.766372	540.984336	830.223451	-210.051561	480.905557	740.524123	-78.510917	456.137597	654.113708	-94.862429	391.012408	598.722575	-106.475345	485.724604	640.521019	-115.156667	320.098916	464.627511	-117.990912	346.555692	468.789345	-201.473626	247.698840	453.661942	-158.351078	529.978349	354.098692	-142.514649	458.218548	349.169636	-88.757757	385.354180	1086.651801	-445.548934	430.675672	1012.666307	-441.217252	460.911853	1022.067885	-424.392005	435.247792	924.116671	-449.513206	440.443972	759.159699	-438.459246	448.827212	721.805047	-327.224483	364.872073	658.572439	-466.094358	316.406123	589.021188	-446.824250	237.825450	546.884005	-450.940339	334.909257	572.282683	-416.394276	123.257372	446.549253	-452.712420	123.233885	452.128276	-365.414477	60.923940	494.338614	-414.812509	188.534286	215.095328	-394.682438	130.490614	261.172399	-462.085209	-175.225340	933.522196	-277.774866	-3.206785	86.280814	-484.322646	-14.857018	80.478149	-83.918291	
